# xmcd
#
# Track frame offsets: 
#        188
#        35608
#        61665
#        71413
#        84863
#        126358
#        158015
#        192995
#        232838
#        259463
#        283763
#        301313
#
# Disc length: 4464 seconds
#
# Revision: 8
# Processed by: cddbd v1.5.2PL0 Copyright (c) Steve Scherf et al.
# Submitted via: ExactAudioCopy v1.3
#
DISCID=9e116e0c
DTITLE=Artisti vari - I grandi della musica classica - Mozart - Vol. 2
DYEAR=1994
DGENRE=Classical
TTITLE0=Serenata N. 13 in Sol maggiore, 'Eine Kleine Nachtmisik', K.52
TTITLE0=5 - Allegro
TTITLE1=Serenata N. 13 in Sol maggiore, 'Eine Kleine Nachtmisik', K.52
TTITLE1=5 - Romanza: Andante
TTITLE2=Serenata N. 13 in Sol maggiore, 'Eine Kleine Nachtmisik', K.52
TTITLE2=5 - Minuetto-Trio-Minuetto-Allegretto
TTITLE3=Serenata N. 13 in Sol maggiore, 'Eine Kleine Nachtmisik', K.52
TTITLE3=5 - Rondo': Allegro
TTITLE4=Quintetto per Clarinetto in La maggiore, K.581 - Adagio
TTITLE5=Quintetto per Clarinetto in La maggiore, K.581 - Larghetto
TTITLE6=Quintetto per Clarinetto in La maggiore, K.581 - Minuetto
TTITLE7=Quintetto per Clarinetto in La maggiore, K.581 - Allegretto co
TTITLE7=n variazioni
TTITLE8=Divertimento N. 1 in Re maggiore, K.136 - Allegro
TTITLE9=Divertimento N. 1 in Re maggiore, K.136 - Andante
TTITLE10=Divertimento N. 1 in Re maggiore, K.136 - Presto
TTITLE11=Andante per Flauto e Orchestra in Do Maggiore, K.315 - Andant
TTITLE11=e
EXTD=YEAR: 1994
EXTT0=Slovak Philharmonic\nDirettore: Libor Pesek\n
EXTT1=Slovak Philharmonic\nDirettore: Libor Pesek\n
EXTT2=Slovak Philharmonic\nDirettore: Libor Pesek\n
EXTT3=Slovak Philharmonic\nDirettore: Libor Pesek\n
EXTT4=Endress Quartet\nClarinetto: Jost Michaels\n
EXTT5=Endress Quartet\nClarinetto: Jost Michaels\n\n
EXTT6=Endress Quartet\nClarinetto: Jost Michaels\n\n
EXTT7=Endress Quartet\nClarinetto: Jost Michaels\n\n
EXTT8=Salzburg Mozarteum\nDirettore: Joseph Schneider
EXTT9=Salzburg Mozarteum\nDirettore: Joseph Schneider\n
EXTT10=Salzburg Mozarteum\nDirettore: Joseph Schneider\n
EXTT11=Salzburg Mozarteum\nDirettore: Joseph Schneider\n
PLAYORDER=
